<svg id="Layer_1" data-name="Layer 1" xmlns="http://www.w3.org/2000/svg" viewBox="0 0 815.82 282.18"><title>dubai-police</title><path d="M16.45,183.83H0v45.85H16.12c15.36,0,25.52-10.51,25.52-23.05s-9.86-22.79-25.19-22.79m0.19,36.79H10.41V193h6.23c8.63,0,14.65,5.88,14.65,13.81s-5.93,13.87-14.65,13.87" transform="translate(0 0)" style="fill:#008755"/><path d="M78.22,210.65c0,6.37-3.95,10.11-9.27,10.11s-9.34-3.75-9.34-10.11V183.83H49.07V211c0,11.72,7.69,19.36,19.56,19.36s19.81-7.92,19.81-19.69V183.83H78.22v26.81Z" transform="translate(0 0)" style="fill:#008755"/><path d="M127.89,205.67a11.29,11.29,0,0,0,5.92-10c0-7.63-6.62-11.85-14.5-11.85H98.72v45.85h21.76c8.25,0,15.34-4.91,15.34-12.82a11.68,11.68,0,0,0-7.93-11.19m-10.72-3.37h-8V192h8c4.14,0,6.23,2.47,6.23,5.19s-2.1,5.13-6.23,5.13m-8,7.63h9.53c4.08,0,6.81,2.34,6.81,5.77,0,3.1-2.37,5.9-6.81,5.9h-9.53V209.92Z" transform="translate(0 0)" style="fill:#008755"/><path d="M166.9,183.83H156.72l-18.6,45.85H149l3.63-9.52h17.79l3.63,9.52H185.5L167,184Zm0.57,28H155.57l6-15.69Z" transform="translate(0 0)" style="fill:#008755"/><rect x="190.99" y="183.83" width="10.67" height="45.85" style="fill:#008755"/><path d="M248.76,183.83H228.89v45.85H239.3V215.3h9.14c10.94,0,17.55-7.15,17.55-15.86,0-9.75-7.35-15.6-17.22-15.6m-9.47,8.86h8.49c5,0,7.85,3.14,7.85,7s-2.88,7-7.85,7H239.3v-14Z" transform="translate(0 0)" style="fill:#008755"/><path d="M295.57,183.19c-13.62,0-24.22,10.36-24.22,23.76,0,13.18,10.06,23.38,23.9,23.38,13.6,0,24.22-10.27,24.22-23.7,0-13.17-10.06-23.44-23.9-23.44m-0.13,37.57c-8,0-13.68-6-13.68-14,0-7.78,5.6-13.94,13.68-13.94,7.84,0,13.68,6,13.68,13.94s-5.81,14-13.68,14" transform="translate(0 0)" style="fill:#008755"/><path d="M420.13,215.76a13.1,13.1,0,0,1-10.65,5c-7.93,0-13.68-5.89-13.68-14s5.75-13.94,13.68-13.94a13.13,13.13,0,0,1,10.38,4.67l0.17,0.19,7.6-6.76-0.17-.19a23.37,23.37,0,0,0-17.84-7.56c-13.58,0-24.22,10.44-24.22,23.76s10.27,23.38,23.9,23.38a23.69,23.69,0,0,0,18.4-8.12l0.17-.19-7.57-6.46Z" transform="translate(0 0)" style="fill:#008755"/><polygon points="338.23 183.83 327.82 183.83 327.82 229.68 360.38 229.68 360.38 220.37 338.23 220.37 338.23 183.83" style="fill:#008755"/><rect x="366.4" y="183.83" width="10.67" height="45.85" style="fill:#008755"/><polygon points="444.65 220.63 444.65 210.38 464.86 210.38 464.86 201.84 444.65 201.84 444.65 192.95 468.1 192.95 468.1 183.83 434.24 183.83 434.24 229.68 468.75 229.68 468.75 220.63 444.65 220.63" style="fill:#008755"/><path d="M252.24,72.51a6.82,6.82,0,1,0-6.82-6.82,6.83,6.83,0,0,0,6.82,6.82" transform="translate(0 0)" style="fill:#008755"/><path d="M431.62,62.25a6.82,6.82,0,1,0-6.82-6.82,6.83,6.83,0,0,0,6.82,6.82" transform="translate(0 0)" style="fill:#008755"/><path d="M422.15,78a6.82,6.82,0,1,0-6.82-6.82A6.83,6.83,0,0,0,422.15,78" transform="translate(0 0)" style="fill:#008755"/><path d="M434.28,71.15a6.82,6.82,0,1,0,6.82-6.82,6.83,6.83,0,0,0-6.82,6.82" transform="translate(0 0)" style="fill:#008755"/><path d="M458.91,79.58l-11.47,7c2.69,4.43,10.65,19.84,6.95,41.67H438.33V86.55H424.92v41.66H414.73V86.55H401.32v41.66h-19V81.09H368.92V134a19.67,19.67,0,0,1-19.65,19.65h-3.42v13.42h3.42a33.12,33.12,0,0,0,32.17-25.44h83.67l1.25-5.11c7.23-29.54-3.88-51.05-7.45-56.94" transform="translate(0 0)" style="fill:#008755"/><path d="M168.26,79.51l-6,12c17.43,8.76,18.46,26,17.15,36.72h-29.9v13.42h40.95l1.16-5.27c8.3-37.7-15.76-53.05-23.33-56.86" transform="translate(0 0)" style="fill:#008755"/><path d="M353.14,141.63l3.55-12A36.13,36.13,0,0,0,351.1,98a35.76,35.76,0,0,0-51.88-5.89l-11.83,10.09V65.69H274v62.53H258.89V81.09H245a33.59,33.59,0,0,0-33.55,33.55v27h13.42v-27A20.16,20.16,0,0,1,245,94.51h0.45v47.13H353.14Zm-65.76-21.77,20.54-17.52a22.33,22.33,0,0,1,32.4,3.68,22.64,22.64,0,0,1,3.51,19.84l-0.7,2.36H287.39v-8.35Z" transform="translate(0 0)" style="fill:#008755"/><path d="M127.33,150.22a6.83,6.83,0,1,0,6.83,6.83,6.84,6.84,0,0,0-6.83-6.83" transform="translate(0 0)" style="fill:#008755"/><path d="M55.71,150.22a6.83,6.83,0,1,0,6.83,6.83,6.84,6.84,0,0,0-6.83-6.83" transform="translate(0 0)" style="fill:#008755"/><path d="M38.54,150.22a6.83,6.83,0,1,0,6.83,6.83,6.84,6.84,0,0,0-6.83-6.83" transform="translate(0 0)" style="fill:#008755"/><path d="M235.51,72.52a6.83,6.83,0,1,0-6.83-6.83,6.84,6.84,0,0,0,6.83,6.83" transform="translate(0 0)" style="fill:#008755"/><path d="M128,120a8.21,8.21,0,0,1-8.2,8.2h-6.16V81.09H99.55c-18.14,0-32.35,14.74-32.35,33.55v13.57H13.42V126.4a87.54,87.54,0,0,1,10-40.55L11.59,79.53A101.18,101.18,0,0,0,0,126.4v15.23H80.62v-27c0-11.48,8.14-20.14,18.93-20.14h0.72v47.13h19.58A21.64,21.64,0,0,0,141.46,120V81.09H128V120Z" transform="translate(0 0)" style="fill:#008755"/><path d="M813.23,157.91a30.52,30.52,0,0,0-7,.44,39.53,39.53,0,0,0,4.56-6,32.07,32.07,0,0,0,3.67-26.3,30.52,30.52,0,0,0-6.73,1.9,39.71,39.71,0,0,0,3.19-6.85,32.07,32.07,0,0,0-2-26.49,30.51,30.51,0,0,0-6.18,3.28,39.63,39.63,0,0,0,1.67-7.37A32.07,32.07,0,0,0,797,65a30.55,30.55,0,0,0-5.35,4.51,39.51,39.51,0,0,0,.08-7.55A32.07,32.07,0,0,0,779,38.65a30.48,30.48,0,0,0-4.28,5.53,39.66,39.66,0,0,0-1.51-7.4,32.07,32.07,0,0,0-17.32-20.13,30.51,30.51,0,0,0-3,6.31,39.62,39.62,0,0,0-3-6.92A32.08,32.08,0,0,0,728.7,0,31.18,31.18,0,0,0,727,14.14c-1-.77-2.17-1.53-3.39-2.27A32.07,32.07,0,0,0,697.3,8.58a32.08,32.08,0,0,0,15.19,21.78c1.23,0.74,2.42,1.38,3.59,1.94a31.19,31.19,0,0,0-11.74,8.06,31.78,31.78,0,0,0,19.4,10.84,31.79,31.79,0,0,0,16.55,14.45,31.79,31.79,0,0,0,13.14,17.61,31.79,31.79,0,0,0,9.13,20,31.78,31.78,0,0,0,4.72,21.46,31.77,31.77,0,0,0,.09,22,31.78,31.78,0,0,0-4.54,21.5,31.78,31.78,0,0,0-9,20.06,31.78,31.78,0,0,0-13,17.72,31.78,31.78,0,0,0-16.43,14.59,31.78,31.78,0,0,0-19.13,10.8,32.08,32.08,0,0,0-24.5,9.59c-4.42,4.45-7,8.76-8.28,12.82a7.63,7.63,0,0,1-14.63,0c-1.28-4.06-3.86-8.37-8.29-12.82a32.08,32.08,0,0,0-24.5-9.59A31.79,31.79,0,0,0,606,220.53a31.79,31.79,0,0,0-16.43-14.59,31.78,31.78,0,0,0-13-17.72,31.77,31.77,0,0,0-9-20.06,31.79,31.79,0,0,0-4.54-21.5,31.78,31.78,0,0,0,.09-22,31.78,31.78,0,0,0,4.72-21.46,31.79,31.79,0,0,0,9.13-20,31.79,31.79,0,0,0,13.14-17.61,31.78,31.78,0,0,0,16.55-14.45,31.77,31.77,0,0,0,19.4-10.84,31.18,31.18,0,0,0-11.74-8.06c1.17-.56,2.36-1.2,3.59-1.94A32.07,32.07,0,0,0,633.12,8.58a32.07,32.07,0,0,0-26.35,3.29c-1.23.74-2.35,1.5-3.39,2.27A31.17,31.17,0,0,0,601.72,0a32.08,32.08,0,0,0-21.17,16,39.69,39.69,0,0,0-3,6.92,30.51,30.51,0,0,0-3-6.31,32.07,32.07,0,0,0-17.32,20.13,39.65,39.65,0,0,0-1.51,7.4,30.49,30.49,0,0,0-4.28-5.53A32.07,32.07,0,0,0,538.7,62a39.6,39.6,0,0,0,.09,7.55A30.51,30.51,0,0,0,533.43,65a32.07,32.07,0,0,0-7.49,25.48,39.63,39.63,0,0,0,1.67,7.37,30.51,30.51,0,0,0-6.18-3.28,32.07,32.07,0,0,0-2,26.49,39.63,39.63,0,0,0,3.19,6.85,30.55,30.55,0,0,0-6.73-1.9,32.07,32.07,0,0,0,3.67,26.3,39.6,39.6,0,0,0,4.56,6,30.52,30.52,0,0,0-7-.44,32.08,32.08,0,0,0,9.13,24.94,39.7,39.7,0,0,0,5.73,4.93,30.53,30.53,0,0,0-6.92,1,32.07,32.07,0,0,0,14.17,22.46,39.49,39.49,0,0,0,6.64,3.61,30.59,30.59,0,0,0-6.54,2.47,32.08,32.08,0,0,0,18.59,19,39.79,39.79,0,0,0,7.25,2.13,30.46,30.46,0,0,0-5.88,3.8,32.07,32.07,0,0,0,22.17,14.62,39.41,39.41,0,0,0,7.53.56,30.58,30.58,0,0,0-4.95,4.95A32.07,32.07,0,0,0,608.85,272a39.59,39.59,0,0,0,7.48-1,30.39,30.39,0,0,0-3.79,5.88,32.06,32.06,0,0,0,26.22,4.2,35.08,35.08,0,0,0,11-4.86,27.35,27.35,0,0,1,30.82,0,35.1,35.1,0,0,0,11,4.86,32.07,32.07,0,0,0,26.22-4.2,30.58,30.58,0,0,0-3.79-5.88,39.55,39.55,0,0,0,7.48,1,32.07,32.07,0,0,0,24.75-9.63,30.58,30.58,0,0,0-4.95-4.95,39.41,39.41,0,0,0,7.53-.56,32.07,32.07,0,0,0,22.16-14.62,30.43,30.43,0,0,0-5.88-3.8,39.82,39.82,0,0,0,7.25-2.13,32.08,32.08,0,0,0,18.59-19,30.59,30.59,0,0,0-6.54-2.47,39.56,39.56,0,0,0,6.64-3.61,32.07,32.07,0,0,0,14.17-22.46,30.53,30.53,0,0,0-6.92-1,39.64,39.64,0,0,0,5.72-4.93,32.07,32.07,0,0,0,9.13-24.94M610,227.23A27.11,27.11,0,0,1,623.28,238c4,6.22,5.3,11.68,4.33,16.55-4.84-1.15-9.25-4.61-13.25-10.83A27.09,27.09,0,0,1,610,227.23m-17.93-13.88a27.1,27.1,0,0,1,10.66,13.36c2.59,6.92,2.73,12.53.75,17.1-4.49-2.14-8.07-6.46-10.67-13.38a27.09,27.09,0,0,1-.74-17.08M577.5,196a27.09,27.09,0,0,1,7.61,15.31c1.08,7.31,0,12.82-2.87,16.87-3.94-3-6.53-8-7.61-15.33A27.1,27.1,0,0,1,577.5,196m-10.62-20a27.1,27.1,0,0,1,4.21,16.57c-0.49,7.38-2.68,12.54-6.36,15.89-3.21-3.8-4.7-9.21-4.21-16.58A27.1,27.1,0,0,1,566.88,176M547,143.36a27.11,27.11,0,0,1,12.33-11.84,27.09,27.09,0,0,1-3,16.83c-3.48,6.52-7.6,10.33-12.33,11.86-1.36-4.78-.49-10.33,3-16.85m-5.32-9.45c-0.32-5,1.7-10.2,6.47-15.84a27.1,27.1,0,0,1,14.55-9,27.11,27.11,0,0,1-6.46,15.83c-4.78,5.64-9.61,8.49-14.56,9m9.53,34.41a27.09,27.09,0,0,1,9.56-14.18,27.1,27.1,0,0,1,.63,17.08c-2,7.11-5.26,11.7-9.56,14.19-2.34-4.39-2.65-10-.62-17.1M561,102c-5.86,4.51-11.18,6.28-16.12,5.73,0.73-4.92,3.81-9.61,9.67-14.12a27.1,27.1,0,0,1,16.11-5.72A27.11,27.11,0,0,1,561,102m57.05-61.47a27.11,27.11,0,0,1-16.15,5.61c-7.39.14-12.72-1.6-16.37-5,3.51-3.52,8.78-5.47,16.17-5.61a27.1,27.1,0,0,1,16.35,5m-8.46-23.93a27.1,27.1,0,0,1,16.65-3.87,27.1,27.1,0,0,1-11.18,12.93c-6.33,3.82-11.82,5-16.67,3.87,1.28-4.8,4.86-9.12,11.19-12.94m-24.25,2.11A27.1,27.1,0,0,1,597.85,7a27.1,27.1,0,0,1-3.21,16.79C591.07,30.28,586.9,34,582.15,35.5c-1.3-4.8-.35-10.33,3.22-16.81M582,51.37a27.1,27.1,0,0,1,17,1.43,27.11,27.11,0,0,1-14.61,8.88c-7.2,1.69-12.78,1.11-17.05-1.42,2.69-4.18,7.43-7.19,14.62-8.89m-19.53-13a27.1,27.1,0,0,1,9.74-14,27.08,27.08,0,0,1,.4,17.09c-2.12,7.08-5.42,11.63-9.75,14.06-2.28-4.42-2.52-10-.39-17.11M566,71a27.1,27.1,0,0,1,17-2.19,27.1,27.1,0,0,1-12.41,11.76c-6.68,3.17-12.26,3.78-17,2.2C555.35,78.14,559.34,74.2,566,71m-21.84-8.61a27.1,27.1,0,0,1,6.57-15.78,27.1,27.1,0,0,1,4,16.62c-0.59,7.37-2.85,12.51-6.57,15.8-3.16-3.84-4.58-9.27-4-16.64M534.49,73a27.11,27.11,0,0,1,7.4,15.41c1,7.33-.15,12.82-3.1,16.83-3.89-3.09-6.42-8.1-7.4-15.43A27.09,27.09,0,0,1,534.49,73m-10.35,29.17a27.11,27.11,0,0,1,10.48,13.51c2.5,7,2.56,12.57.52,17.1-4.46-2.2-8-6.56-10.49-13.52a27.1,27.1,0,0,1-.52-17.09m-4,30.69a27.11,27.11,0,0,1,13.09,11c3.91,6.27,5.15,11.75,4.11,16.61-4.82-1.21-9.19-4.73-13.1-11a27.1,27.1,0,0,1-4.1-16.6M530.27,179a27.11,27.11,0,0,1-7.51-15.36,27.11,27.11,0,0,1,15.11,8C543,177,545.38,182,545.39,187c-5-.17-10-2.69-15.12-8m12.09,27.68a27.1,27.1,0,0,1-10.57-13.43,27.09,27.09,0,0,1,16.46,4.63c6.15,4.11,9.53,8.58,10.59,13.44-4.89.88-10.32-.53-16.47-4.64M560,231.21a27.1,27.1,0,0,1-13.17-10.91,27.1,27.1,0,0,1,17.06,1.06c6.87,2.72,11.12,6.38,13.18,10.91-4.6,1.89-10.2,1.66-17.08-1.06m22.41,20.24a27.1,27.1,0,0,1-15.17-7.89,27.1,27.1,0,0,1,16.9-2.56c7.29,1.21,12.22,3.9,15.18,7.89-4.1,2.82-9.63,3.77-16.92,2.56m26.17,15.07A27.1,27.1,0,0,1,592.1,262a27.1,27.1,0,0,1,16-6.06c7.38-.35,12.77,1.24,16.5,4.51-3.41,3.62-8.62,5.71-16,6.07m28.76,9.22a27.09,27.09,0,0,1-17.07-.94,27.11,27.11,0,0,1,14.35-9.29c7.14-1.9,12.74-1.48,17.09.94-2.57,4.26-7.22,7.4-14.36,9.3m0.85-23.46A27.09,27.09,0,0,1,630.49,237a27.11,27.11,0,0,1,15.22,7.79c5.21,5.24,7.64,10.3,7.72,15.27-5-.1-10-2.56-15.23-7.8m172-119.46a27.09,27.09,0,0,1-4.1,16.6c-3.91,6.28-8.28,9.8-13.1,11-1-4.86.2-10.34,4.11-16.61a27.11,27.11,0,0,1,13.09-11m-4-30.69a27.1,27.1,0,0,1-.51,17.09c-2.5,7-6,11.32-10.49,13.52-2-4.54-2-10.15.52-17.1a27.1,27.1,0,0,1,10.48-13.51M788.52,88.37A27.1,27.1,0,0,1,795.92,73,27.1,27.1,0,0,1,799,89.78c-1,7.33-3.51,12.34-7.4,15.43-2.95-4-4.07-9.5-3.09-16.83m-14.4,60a27.11,27.11,0,0,1-3-16.83,27.1,27.1,0,0,1,12.33,11.84c3.48,6.52,4.35,12.06,3,16.85-4.73-1.53-8.85-5.34-12.34-11.86m4.52,37.07c-4.3-2.49-7.53-7.08-9.56-14.19a27.1,27.1,0,0,1,.63-17.08,27.1,27.1,0,0,1,9.56,14.18c2,7.11,1.71,12.71-.62,17.1m-4.41-60.5a27.11,27.11,0,0,1-6.46-15.83,27.1,27.1,0,0,1,14.55,9c4.78,5.64,6.8,10.88,6.47,15.84-4.95-.5-9.78-3.35-14.56-9m5.44-78.29a27.1,27.1,0,0,1,6.57,15.78c0.59,7.37-.83,12.8-4,16.64-3.73-3.29-6-8.43-6.57-15.8a27.1,27.1,0,0,1,4-16.62M758.23,24.31a27.1,27.1,0,0,1,9.75,14c2.13,7.08,1.88,12.69-.4,17.11-4.34-2.44-7.62-7-9.75-14.06a27.1,27.1,0,0,1,.4-17.09M732.57,7a27.1,27.1,0,0,1,12.49,11.68c3.57,6.48,4.51,12,3.22,16.81-4.75-1.47-8.92-5.22-12.49-11.69A27.09,27.09,0,0,1,732.57,7M715.33,25.65a27.1,27.1,0,0,1-11.18-12.93,27.1,27.1,0,0,1,16.65,3.87c6.33,3.82,9.91,8.14,11.19,12.94-4.85,1.11-10.34-.05-16.67-3.87M728.5,46.12a27.11,27.11,0,0,1-16.15-5.61,27.1,27.1,0,0,1,16.35-5c7.39,0.14,12.65,2.09,16.17,5.61-3.65,3.38-9,5.13-16.37,5m2.91,6.68a27.1,27.1,0,0,1,17-1.43c7.2,1.7,11.93,4.71,14.62,8.89-4.28,2.54-9.86,3.12-17.05,1.42A27.11,27.11,0,0,1,731.4,52.8m16,16a27.1,27.1,0,0,1,17,2.19c6.68,3.17,10.67,7.11,12.42,11.77-4.71,1.58-10.29,1-17-2.2a27.1,27.1,0,0,1-12.41-11.76m12.3,19a27.1,27.1,0,0,1,16.11,5.72c5.86,4.51,8.93,9.2,9.67,14.12-4.94.55-10.27-1.22-16.12-5.73a27.09,27.09,0,0,1-9.65-14.11M763.54,176a27.1,27.1,0,0,1,6.36,15.87c0.49,7.38-1,12.79-4.21,16.58-3.68-3.34-5.87-8.51-6.36-15.89A27.1,27.1,0,0,1,763.54,176m-18.23,35.34A27.1,27.1,0,0,1,752.91,196a27.1,27.1,0,0,1,2.87,16.85c-1.08,7.31-3.67,12.29-7.61,15.33-2.89-4-3.95-9.56-2.87-16.87m-17.66,15.4a27.1,27.1,0,0,1,10.66-13.36,27.1,27.1,0,0,1-.74,17.08c-2.59,6.92-6.18,11.24-10.67,13.38-2-4.56-1.84-10.17.75-17.1M707.14,238a27.1,27.1,0,0,1,13.24-10.82,27.11,27.11,0,0,1-4.32,16.54c-4,6.22-8.41,9.69-13.25,10.83-1-4.88.34-10.33,4.33-16.55m-22.43,6.76A27.1,27.1,0,0,1,699.93,237a27.09,27.09,0,0,1-7.71,15.26C687,257.52,682,260,677,260.07c0.08-5,2.51-10,7.72-15.27m8.36,30.93c-7.14-1.9-11.79-5-14.36-9.3,4.34-2.42,9.94-2.84,17.09-.94a27.1,27.1,0,0,1,14.35,9.29,27.09,27.09,0,0,1-17.07.94m28.76-9.22c-7.38-.35-12.59-2.45-16-6.07,3.74-3.28,9.12-4.87,16.5-4.51a27.1,27.1,0,0,1,16,6.06,27.1,27.1,0,0,1-16.49,4.52M748,251.45c-7.29,1.21-12.82.26-16.92-2.56,3-4,7.89-6.68,15.18-7.89a27.11,27.11,0,0,1,16.9,2.56A27.1,27.1,0,0,1,748,251.45m22.41-20.24c-6.87,2.72-12.48,3-17.08,1.06,2.06-4.53,6.31-8.19,13.18-10.91a27.11,27.11,0,0,1,17.06-1.06,27.11,27.11,0,0,1-13.16,10.91m28.22-37.94a27.09,27.09,0,0,1-10.57,13.43c-6.15,4.11-11.58,5.52-16.47,4.64,1.06-4.86,4.44-9.34,10.59-13.44a27.09,27.09,0,0,1,16.46-4.63M785,187c0-5,2.37-10.06,7.52-15.37a27.1,27.1,0,0,1,15.11-8A27.11,27.11,0,0,1,800.15,179C795,184.33,790,186.85,785,187" transform="translate(0 0)" style="fill:#008755"/><path d="M581.59,152.53v3.76a227.47,227.47,0,0,0,16.18,26.78H584.35s2.67,5.51,10.93,5.51H735.13c8.27,0,10.93-5.51,10.93-5.51H733.8a275.81,275.81,0,0,0,16.92-28.74h6.72V143.79H721c-38.34-31.12-46.54-84.31-24.23-124.12C632.94,32.37,585,87.84,581.59,152.53m2.82,0.07a133.78,133.78,0,0,1,62.72-19.68V152.6H584.4Zm133.3-4.28-3.17,4.28H655.76V132.7a133.79,133.79,0,0,1,61.94,15.62m-12-11.58a140.05,140.05,0,0,0-117.81,7.48A139,139,0,0,1,686.75,27.81a103.85,103.85,0,0,0,18.92,108.93" transform="translate(0 0)" style="fill:#008755"/><path d="M659,235h12.41c8.27,0,10.94-5.51,10.94-5.51H648.07S650.74,235,659,235" transform="translate(0 0)" style="fill:#008755"/><path d="M707.31,217.85H623.11s2.67,5.51,10.93,5.51h62.32c8.27,0,10.94-5.51,10.94-5.51" transform="translate(0 0)" style="fill:#008755"/><path d="M726.32,206.26H604.1s2.67,5.51,10.94,5.51H715.38c8.27,0,10.94-5.51,10.94-5.51" transform="translate(0 0)" style="fill:#008755"/><path d="M737.91,194.66H592.51s2.67,5.51,10.93,5.51H727c8.27,0,10.94-5.51,10.94-5.51" transform="translate(0 0)" style="fill:#008755"/></svg>